<?xml version="1.0" encoding="utf-8"?>
<!-- Generator: Adobe Illustrator 16.0.0, SVG Export Plug-In . SVG Version: 6.00 Build 0)  -->
<!DOCTYPE svg PUBLIC "-//W3C//DTD SVG 1.1//EN" "http://www.w3.org/Graphics/SVG/1.1/DTD/svg11.dtd">
<svg version="1.1" id="Layer_1" xmlns="http://www.w3.org/2000/svg" xmlns:xlink="http://www.w3.org/1999/xlink" x="0px" y="0px"
	 width="256px" height="256px" viewBox="0 0 256 256" enable-background="new 0 0 256 256" xml:space="preserve">
<g>
	<path fill="#FFE2AE" d="M153.514,172.719v-9.847c16.636-10.012,29.908-28.784,36.665-48.599
		c5.084-1.212,10.061-6.714,12.251-14.228c2.818-9.668-0.037-19.009-6.379-20.858c-0.474-0.138-0.954-0.227-1.443-0.271
		c-3.859-33.37-32.201-59.277-66.603-59.277c-34.406,0-62.755,25.907-66.612,59.277c-0.485,0.045-0.963,0.133-1.438,0.271
		c-6.347,1.85-9.203,11.19-6.384,20.858c2.196,7.514,7.167,13.015,12.256,14.228c6.757,19.814,20.031,38.587,36.666,48.599v9.847
		C53.89,181.656,17.73,215.55,17.73,256H238.27C238.27,215.55,202.109,181.656,153.514,172.719z"/>
	<path fill="#48707C" d="M169.249,176.61L128,218.993L86.752,176.61C46.292,189.286,17.73,220.054,17.73,256H238.27
		C238.27,220.054,209.714,189.286,169.249,176.61z"/>
	<path fill="#333745" d="M128.005,0C77.768,0,60.94,34.838,60.94,46.99v5.382v13.687l0,0v0.007v12.906
		c0.155-0.021,0.31-0.043,0.464-0.059c0-0.008,0-0.019,0-0.027c1.965-4.177,10.736-30.517,26.333-29.717
		c34.833,3.424,85.086,23.32,101.731,10.798c0,0,0.099,0.125,0.123,0.179c2.532,5.873,4.258,12.176,5.016,18.77
		c0.155,0.013,0.303,0.035,0.458,0.056V46.99C195.065,34.838,178.233,0,128.005,0z"/>
	<path opacity="0.15" d="M238.168,252.419c-0.016-0.387-0.059-0.767-0.085-1.153c-0.054-0.799-0.114-1.596-0.197-2.39
		c-0.048-0.455-0.112-0.909-0.171-1.361c-0.091-0.721-0.186-1.434-0.297-2.147c-0.08-0.475-0.166-0.95-0.251-1.42
		c-0.123-0.69-0.257-1.379-0.406-2.061c-0.102-0.473-0.206-0.948-0.318-1.42c-0.16-0.68-0.331-1.354-0.513-2.024
		c-0.128-0.463-0.25-0.927-0.384-1.388c-0.201-0.69-0.422-1.376-0.639-2.057c-0.145-0.433-0.277-0.863-0.428-1.292
		c-0.256-0.749-0.537-1.491-0.825-2.228c-0.134-0.356-0.26-0.712-0.4-1.064c-0.441-1.087-0.9-2.165-1.39-3.231
		c-0.011-0.018-0.016-0.035-0.026-0.05c-0.486-1.05-0.997-2.089-1.534-3.12c-0.182-0.349-0.379-0.692-0.565-1.039
		c-0.374-0.696-0.751-1.385-1.146-2.069c-0.239-0.408-0.485-0.812-0.729-1.216c-0.373-0.613-0.75-1.226-1.14-1.832
		c-0.268-0.422-0.549-0.84-0.826-1.257c-0.39-0.583-0.79-1.163-1.193-1.736c-0.299-0.418-0.599-0.835-0.9-1.247
		c-0.417-0.564-0.844-1.127-1.274-1.684c-0.318-0.403-0.634-0.813-0.953-1.212c-0.454-0.565-0.922-1.122-1.392-1.676
		c-0.324-0.379-0.639-0.76-0.97-1.135c-0.517-0.595-1.056-1.175-1.595-1.757c-0.297-0.323-0.591-0.654-0.895-0.975
		c-0.783-0.82-1.58-1.63-2.402-2.427c-0.197-0.192-0.394-0.379-0.591-0.568c-0.767-0.732-1.541-1.457-2.334-2.17
		c-0.368-0.328-0.753-0.651-1.123-0.976c-0.582-0.502-1.158-1.002-1.749-1.494c-0.427-0.356-0.868-0.705-1.306-1.054
		c-0.561-0.446-1.119-0.892-1.69-1.329c-0.463-0.357-0.931-0.708-1.406-1.061c-0.559-0.414-1.124-0.825-1.699-1.233
		c-0.489-0.349-0.99-0.695-1.492-1.039c-0.569-0.395-1.151-0.78-1.736-1.163c-0.511-0.337-1.023-0.673-1.547-1.004
		c-0.596-0.377-1.199-0.745-1.804-1.113c-0.53-0.318-1.05-0.639-1.584-0.95c-0.628-0.368-1.273-0.725-1.913-1.084
		c-0.522-0.292-1.039-0.589-1.572-0.877c-0.788-0.427-1.598-0.836-2.404-1.247c-0.797-0.406-1.598-0.799-2.407-1.188
		c-0.762-0.365-1.52-0.733-2.292-1.084c-0.59-0.269-1.197-0.525-1.795-0.786c-0.649-0.283-1.301-0.569-1.961-0.842
		c-0.633-0.264-1.273-0.515-1.918-0.771c-0.639-0.253-1.279-0.506-1.929-0.751c-0.66-0.247-1.322-0.487-1.994-0.724
		c-0.643-0.233-1.289-0.46-1.938-0.68c-0.678-0.23-1.359-0.456-2.048-0.675c-0.281-0.091-0.559-0.192-0.84-0.279l-0.018,0.013
		c-5.067-1.588-10.31-2.909-15.718-3.904v-9.847c16.636-10.012,29.908-28.784,36.665-48.599c5.084-1.212,10.061-6.714,12.251-14.228
		c2.818-9.668-0.037-19.009-6.379-20.858c-0.281-0.083-0.582-0.114-0.868-0.165l-0.117-0.05V46.99
		c0-12.151-16.832-46.99-67.061-46.99c-0.002,0-0.002,0-0.002,0L128,256h110.27C238.27,254.801,238.232,253.607,238.168,252.419z"/>
</g>
</svg>
