<?xml version="1.0" encoding="utf-8"?>
<!-- Generator: Adobe Illustrator 16.0.0, SVG Export Plug-In . SVG Version: 6.00 Build 0)  -->
<!DOCTYPE svg PUBLIC "-//W3C//DTD SVG 1.1//EN" "http://www.w3.org/Graphics/SVG/1.1/DTD/svg11.dtd">
<svg version="1.1" id="Layer_1" xmlns="http://www.w3.org/2000/svg" xmlns:xlink="http://www.w3.org/1999/xlink" x="0px" y="0px"
	 width="256px" height="256px" viewBox="0 0 256 256" enable-background="new 0 0 256 256" xml:space="preserve">
<g>
	<path fill="#FFE2AE" d="M153.118,174.014v-9.7c24.003-14.448,40.898-47.421,40.898-74.986c0-36.466-29.554-66.023-66.016-66.023
		c-36.458,0-66.017,29.557-66.017,66.023c0,27.565,16.9,60.538,40.905,74.986v9.7C55.042,182.809,19.441,216.179,19.441,256H236.56
		C236.56,216.179,200.957,182.809,153.118,174.014z"/>
	<path fill="#FFCC5C" d="M173.668,145.512h53.146c0,0-22.178-18.898-22.178-32.105c0-13.201,0-36.766,0-36.766
		C204.636,34.316,170.329,0,128,0C85.675,0,51.364,34.316,51.364,76.641v3.625v8.275c0,0,0,11.666,0,24.867
		c0,13.207-22.187,32.105-22.187,32.105h53.16c-12.542-16.221-20.354-37.447-20.354-56.185c0-1.515,0.068-3.009,0.175-4.497
		c4.857-13.084,15.535-23.873,38.829-27.434c29.979-4.589,73.147,26.775,92.966,29.146c0.037,0.924,0.063,1.849,0.063,2.785
		C194.017,108.065,186.205,129.291,173.668,145.512z"/>
	<path fill="#FF6E69" d="M169.602,178.159c-7.275,5.229-23.16,8.858-41.601,8.858c-18.436,0-34.328-3.63-41.597-8.858
		C47.086,190.828,19.441,220.909,19.441,256H236.56C236.56,220.909,208.902,190.828,169.602,178.159z"/>
	<path opacity="0.15" d="M236.464,252.49c-0.021-0.383-0.059-0.764-0.086-1.146c-0.053-0.778-0.111-1.558-0.195-2.33
		c-0.048-0.452-0.107-0.899-0.165-1.349c-0.092-0.7-0.186-1.399-0.292-2.093c-0.075-0.473-0.16-0.943-0.245-1.413
		c-0.123-0.67-0.256-1.335-0.393-1.997c-0.103-0.476-0.207-0.945-0.319-1.416c-0.154-0.659-0.324-1.314-0.498-1.968
		c-0.125-0.463-0.245-0.926-0.379-1.383c-0.191-0.672-0.409-1.34-0.622-2.003c-0.137-0.432-0.271-0.861-0.421-1.287
		c-0.259-0.754-0.541-1.504-0.832-2.25c-0.123-0.326-0.24-0.656-0.367-0.98c-0.421-1.044-0.866-2.078-1.335-3.104
		c-0.174-0.382-0.373-0.76-0.552-1.14c-0.314-0.656-0.628-1.313-0.964-1.961c-0.237-0.454-0.488-0.903-0.732-1.357
		c-0.31-0.563-0.616-1.129-0.936-1.688c-0.271-0.47-0.552-0.936-0.834-1.4c-0.325-0.528-0.647-1.058-0.983-1.581
		c-0.304-0.476-0.61-0.945-0.925-1.414c-0.335-0.502-0.681-1.005-1.03-1.501c-0.329-0.471-0.666-0.938-1.005-1.403
		c-0.356-0.489-0.728-0.973-1.101-1.453c-0.354-0.459-0.7-0.92-1.067-1.375c-0.388-0.482-0.792-0.956-1.191-1.432
		c-0.365-0.438-0.728-0.882-1.11-1.317c-0.467-0.537-0.962-1.066-1.446-1.595c-0.679-0.738-1.37-1.466-2.082-2.187
		c-0.437-0.447-0.866-0.896-1.318-1.334c-0.453-0.441-0.919-0.874-1.388-1.311c-0.424-0.397-0.845-0.8-1.281-1.193
		c-0.482-0.436-0.981-0.863-1.477-1.294c-0.435-0.376-0.871-0.755-1.312-1.126c-0.511-0.425-1.025-0.846-1.548-1.263
		c-0.45-0.361-0.903-0.72-1.359-1.074c-0.532-0.411-1.069-0.817-1.611-1.222c-0.468-0.349-0.94-0.69-1.417-1.033
		c-0.549-0.395-1.101-0.786-1.66-1.172c-0.482-0.332-0.978-0.656-1.473-0.983c-0.567-0.38-1.136-0.763-1.716-1.132
		c-0.495-0.313-0.999-0.616-1.498-0.925c-1.132-0.693-2.28-1.367-3.444-2.027c-0.509-0.29-1.015-0.584-1.529-0.866
		c-0.607-0.329-1.225-0.646-1.841-0.966c-0.552-0.289-1.1-0.578-1.657-0.856c-0.616-0.311-1.247-0.611-1.876-0.912
		c-0.567-0.273-1.138-0.545-1.711-0.811c-0.633-0.292-1.275-0.574-1.914-0.855c-0.59-0.258-1.179-0.514-1.78-0.762
		c-0.637-0.271-1.281-0.533-1.929-0.793c-0.616-0.247-1.239-0.486-1.86-0.723c-0.644-0.247-1.292-0.492-1.941-0.727
		c-0.647-0.235-1.301-0.459-1.953-0.682c-0.64-0.221-1.276-0.444-1.926-0.654c-0.11-0.037-0.222-0.076-0.334-0.113
		c-0.005,0.002-0.011,0.005-0.011,0.005c-5.299-1.706-10.798-3.107-16.473-4.15v-9.7c8.841-5.322,16.707-13.169,23.133-22.323
		c-0.841,1.197-1.696,2.373-2.583,3.521h53.146c0,0-22.178-18.898-22.178-32.105c0-13.201,0-36.766,0-36.766
		C204.636,34.316,170.329,0,128,0v256H236.56C236.56,254.823,236.522,253.654,236.464,252.49z"/>
</g>
</svg>
